 <svg version="1.2" id="Layer_1" xmlns="http://www.w3.org/2000/svg" xmlns:xlink="http://www.w3.org/1999/xlink" x="0px" y="0px" viewBox="0 0 426 279.02" style="enable-background:new 0 0 455 455;" xml:space="preserve"><path transform="translate(-22.5 -78.91)" d="M423.63,99.26H47.37a4.53,4.53,0,0,0-4.52,4.53V333.06a4.52,4.52,0,0,0,4.52,4.52H423.63a4.52,4.52,0,0,0,4.52-4.52V103.79A4.53,4.53,0,0,0,423.63,99.26ZM419.1,328.54H51.9V108.31H419.1Z" style="fill: rgb(255, 255, 255); stroke-width: 0px;" vector-effect="non-scaling-stroke"></path><path transform="translate(-22.5 -78.91)" d="M294.48,357.93H428.65a19.87,19.87,0,0,0,19.85-19.85V98.76a19.88,19.88,0,0,0-19.85-19.85H42.35A19.88,19.88,0,0,0,22.5,98.76V338.08a19.87,19.87,0,0,0,19.85,19.85H176.52m14.68,0h88.6m155.13-19.85a6.28,6.28,0,0,1-6.28,6.28H42.35a6.28,6.28,0,0,1-6.28-6.28V98.76a6.29,6.29,0,0,1,6.28-6.28h386.3a6.29,6.29,0,0,1,6.28,6.28Z" style="fill: rgb(255, 255, 255); stroke-width: 0px;" vector-effect="non-scaling-stroke"></path></svg>