<svg version="1.1" id="Layer_1" xmlns="http://www.w3.org/2000/svg" xmlns:xlink="http://www.w3.org/1999/xlink" x="0px" y="0px" viewBox="0 0 47.06 48" style="enable-background:new 0 0 455 455;" xml:space="preserve">
<defs><style>.cls-1_1558337557895{fill:#fff;}.cls-2_1558337557895{fill:none;stroke:#fff;stroke-miterlimit:10;stroke-width:2px;}</style></defs><path transform="translate(-177.35 -201.94)" d="M211,225.53A10.13,10.13,0,1,1,221.1,215.4,10.14,10.14,0,0,1,211,225.53Zm0-18.38a8.26,8.26,0,1,0,8.26,8.26A8.27,8.27,0,0,0,211,207.15Z" class="cls-1_1558337557895" vector-effect="non-scaling-stroke" style="fill: rgb(1, 104, 255);"></path><path transform="translate(-177.35 -201.94)" d="M190.87,226.67l-.19,0-.18-.06-.16-.08-.14-.11-.11-.14a.4.4,0,0,1-.08-.16l-.06-.18a1.1,1.1,0,0,1,0-.18,1.37,1.37,0,0,1,0-.19.58.58,0,0,1,.06-.17.4.4,0,0,1,.08-.16l.11-.14.14-.12.16-.08.18-.06a.77.77,0,0,1,.37,0,.58.58,0,0,1,.17.06l.16.08a.58.58,0,0,1,.14.12.53.53,0,0,1,.12.14.6.6,0,0,1,.08.16l.06.17a1.23,1.23,0,0,1,0,.19,1.1,1.1,0,0,1,0,.18.64.64,0,0,1-.06.18,1.19,1.19,0,0,1-.08.16l-.12.14-.14.11a.4.4,0,0,1-.16.08l-.17.06A.58.58,0,0,1,190.87,226.67Z" class="cls-1_1558337557895" vector-effect="non-scaling-stroke" style="fill: rgb(1, 104, 255);"></path><path transform="translate(-177.35 -201.94)" d="M220.13,201.94H201.8a4.31,4.31,0,0,0-4.3,4.3v14.85h-1.31v-5.63a3,3,0,0,0-5.94,0v5.63h-3.78v-5.63a3,3,0,1,0-5.93,0v5.63h-2.25a.94.94,0,0,0-.94.94v3.7a.94.94,0,0,0,.94.94h1v2.69a5.71,5.71,0,0,0,2.12,4.47,9.29,9.29,0,0,0,2.11,1.28v.2a3.32,3.32,0,0,0,3.32,3.32h.61v6.12a5.19,5.19,0,0,0,10.37,0v-8.42a2.77,2.77,0,0,1,5.53,0,.94.94,0,1,0,1.87,0,4.64,4.64,0,1,0-9.28,0v8.41a3.31,3.31,0,0,1-6.62,0v-6.12h.61a3.32,3.32,0,0,0,3.32-3.32v-.2a9,9,0,0,0,2.11-1.28,5.72,5.72,0,0,0,2.13-4.47v-2.69H198a4.31,4.31,0,0,0,3.75,2.2h18.33a4.3,4.3,0,0,0,4.3-4.29V206.24A4.3,4.3,0,0,0,220.13,201.94Zm-28,13.53a1.1,1.1,0,0,1,2.2,0v5.63h-2.19v-5.63Zm-9.71,0a1.1,1.1,0,0,1,2.2,0v5.63h-2.2Zm15.09,9.32h-1.89a1,1,0,0,0-.94.94.94.94,0,0,0,.92.94v2.69a3.86,3.86,0,0,1-1.42,3,7.84,7.84,0,0,1-2.19,1.22.93.93,0,0,0-.62.88v.83a1.44,1.44,0,0,1-1.45,1.44h-3.09a1.43,1.43,0,0,1-1.44-1.44v-.83a.94.94,0,0,0-.63-.88,7.84,7.84,0,0,1-2.19-1.22,3.83,3.83,0,0,1-1.42-3v-2.69h5.63a.94.94,0,0,0,0-1.88h-7.54V223H197.5Zm25.05-.21a2.43,2.43,0,0,1-2.42,2.42H201.8a2.43,2.43,0,0,1-2.42-2.42V206.24a2.42,2.42,0,0,1,2.42-2.42h18.33a2.42,2.42,0,0,1,2.42,2.42v18.34Z" class="cls-1_1558337557895" vector-effect="non-scaling-stroke" style="fill: rgb(1, 104, 255);"></path><path transform="translate(-177.35 -201.94)" d="M209.56,212.54V219a.21.21,0,0,0,.31.17l5.36-3.3a.2.2,0,0,0,0-.35l-5.36-3.13A.2.2,0,0,0,209.56,212.54Z" class="cls-2_1558337557895" vector-effect="non-scaling-stroke" style="fill: rgb(1, 104, 255);"></path></svg>