<?xml version="1.0" standalone="no"?>
<!DOCTYPE svg PUBLIC "-//W3C//DTD SVG 20010904//EN"
 "http://www.w3.org/TR/2001/REC-SVG-20010904/DTD/svg10.dtd">
<svg version="1.0" xmlns="http://www.w3.org/2000/svg"
 width="260.000000pt" height="260.000000pt" viewBox="0 0 260.000000 260.000000"
 preserveAspectRatio="xMidYMid meet">
<metadata>
Created by potrace 1.11, written by Peter Selinger 2001-2013
</metadata>
<g transform="translate(0.000000,260.000000) scale(0.100000,-0.100000)"
fill="#000000" stroke="none">
<path d="M1256 2584 c-4 -10 -12 -14 -22 -10 -11 4 -15 2 -11 -8 4 -10 1 -13
-8 -10 -8 3 -12 13 -9 22 3 9 -1 7 -7 -5 -11 -21 -13 -22 -26 -5 -11 14 -12
14 -7 1 3 -11 -2 -18 -16 -22 -11 -3 -22 -5 -24 -4 -1 1 -10 -4 -19 -12 -10
-7 -17 -10 -17 -5 0 5 -5 2 -10 -6 -5 -8 -10 -10 -10 -4 0 7 -7 15 -16 18 -15
6 -15 4 -3 -10 13 -16 12 -16 -11 -4 -22 12 -23 11 -13 -1 10 -12 8 -15 -10
-16 -12 -1 -28 -10 -35 -20 -13 -16 -14 -16 -8 7 6 21 5 22 -4 7 -6 -9 -16
-14 -22 -11 -7 5 -8 2 -3 -6 6 -10 4 -12 -9 -7 -14 5 -17 3 -13 -8 4 -8 1 -17
-5 -21 -6 -4 -8 -3 -5 3 4 6 0 16 -8 23 -13 11 -14 10 -9 -4 3 -9 1 -16 -6
-16 -6 0 -8 -4 -5 -10 3 -6 -5 -10 -18 -10 -14 0 -27 -7 -31 -15 -3 -8 -11
-15 -18 -14 -10 0 -10 2 0 6 6 2 12 9 12 15 0 6 -6 5 -15 -2 -8 -7 -14 -20
-13 -29 2 -12 -5 -16 -29 -15 -26 0 -30 -2 -21 -13 9 -11 7 -12 -7 -7 -13 5
-16 4 -11 -4 5 -8 0 -12 -14 -12 -14 0 -19 -4 -14 -12 5 -8 2 -9 -11 -4 -15 5
-16 4 -5 -9 11 -13 10 -14 -5 -9 -14 6 -16 4 -10 -7 4 -8 4 -11 0 -6 -5 4 -17
-5 -27 -20 -11 -16 -18 -21 -16 -11 3 16 1 18 -24 18 -9 0 -8 -4 2 -10 13 -9
13 -12 -3 -21 -9 -6 -15 -14 -12 -19 3 -5 -3 -7 -14 -5 -15 3 -18 0 -14 -12 5
-12 2 -15 -10 -10 -10 4 -16 2 -14 -5 1 -7 -3 -12 -10 -13 -6 0 -15 -4 -20 -9
-5 -5 -3 -6 5 -2 7 4 12 2 12 -6 0 -8 -22 -33 -50 -57 -28 -24 -50 -52 -50
-63 0 -10 -4 -16 -10 -13 -6 4 -10 -5 -10 -20 0 -17 -4 -24 -12 -19 -8 5 -9 2
-4 -11 5 -15 4 -16 -8 -6 -11 9 -16 9 -22 0 -4 -7 -3 -9 3 -6 6 4 14 0 17 -9
3 -8 2 -13 -2 -11 -4 2 -15 -4 -25 -15 -11 -12 -13 -18 -5 -18 9 0 8 -3 -2
-10 -8 -5 -16 -14 -16 -20 -1 -5 -2 -15 -3 -21 0 -5 -6 -7 -11 -4 -6 3 -10 1
-10 -4 0 -6 5 -11 10 -11 6 0 5 -6 -2 -14 -7 -8 -17 -11 -23 -8 -5 3 -4 -1 2
-10 13 -15 8 -28 -11 -28 -6 0 -4 5 4 10 8 5 10 10 4 10 -18 0 -24 -13 -13
-27 9 -9 8 -13 0 -13 -6 0 -11 -5 -11 -11 0 -5 6 -7 13 -3 9 6 9 5 0 -8 -7 -8
-10 -18 -6 -22 4 -4 0 -4 -10 0 -10 3 -17 1 -17 -5 0 -6 5 -11 10 -11 6 0 10
-5 10 -10 0 -7 -7 -7 -21 0 -20 11 -20 11 -3 -14 15 -24 15 -26 0 -20 -12 5
-15 2 -9 -12 5 -13 3 -15 -8 -9 -11 6 -11 5 -2 -5 6 -7 9 -19 6 -27 -3 -8 0
-19 8 -25 11 -8 10 -9 -4 -4 -15 5 -17 2 -12 -14 4 -12 2 -20 -5 -20 -6 0 -9
4 -5 9 3 5 1 12 -4 15 -5 3 -9 -94 -10 -226 0 -175 2 -234 12 -240 9 -6 9 -8
0 -8 -7 0 -13 -8 -13 -17 0 -15 2 -16 10 -3 5 8 10 10 10 5 0 -6 -5 -16 -12
-23 -9 -9 -8 -12 5 -12 13 0 16 -7 13 -30 -2 -22 1 -30 13 -30 14 0 14 -2 1
-10 -8 -5 -10 -10 -4 -10 7 0 15 -7 18 -16 5 -12 2 -15 -9 -10 -9 3 -13 2 -10
-4 3 -6 14 -10 23 -11 13 0 13 -2 3 -6 -10 -4 -8 -9 10 -20 13 -8 16 -12 7 -9
-10 3 -20 0 -24 -7 -4 -7 -4 -9 1 -5 4 4 14 1 21 -7 16 -15 19 -29 5 -21 -11
7 -9 -13 2 -32 5 -7 13 -10 18 -7 5 4 9 -1 9 -10 0 -10 -5 -13 -12 -9 -7 4 -8
3 -4 -5 4 -6 11 -9 16 -6 4 3 11 -2 14 -11 3 -9 2 -12 -5 -8 -6 3 -5 -3 2 -15
10 -14 15 -17 21 -8 4 7 8 7 8 1 0 -5 -5 -15 -10 -20 -8 -8 -5 -15 7 -25 17
-13 17 -13 3 6 -14 19 -14 19 2 6 20 -15 25 -47 6 -35 -7 4 -8 3 -4 -4 4 -6
14 -8 24 -5 14 5 15 3 5 -8 -7 -7 -13 -18 -13 -23 0 -6 4 -5 9 3 5 7 14 10 20
6 9 -5 9 -11 -1 -23 -10 -12 -10 -14 0 -8 7 4 12 2 12 -4 0 -6 5 -8 13 -4 7 5
6 0 -3 -11 -13 -17 -13 -18 1 -13 9 4 21 -2 29 -15 12 -20 12 -21 -3 -9 -10 9
-17 10 -22 2 -4 -6 -3 -9 2 -8 4 2 23 -13 42 -32 18 -19 41 -34 50 -33 9 1 11
0 4 -3 -18 -8 -16 -27 2 -21 8 4 17 1 21 -5 4 -7 3 -8 -4 -4 -7 4 -12 1 -12
-8 0 -9 6 -15 13 -14 6 2 11 -3 9 -11 -3 -12 0 -12 13 -1 13 11 15 10 10 -3
-4 -8 -1 -18 4 -22 6 -3 9 -11 6 -16 -3 -5 1 -6 9 -3 9 4 18 -1 22 -10 3 -9
10 -16 16 -16 5 0 6 6 2 12 -5 9 -2 9 9 -1 18 -15 23 -26 7 -16 -5 3 -10 1
-10 -5 0 -8 10 -10 28 -6 19 5 23 4 12 -3 -13 -9 -13 -12 -1 -23 12 -11 13
-10 6 2 -4 8 5 2 20 -15 14 -16 24 -25 21 -19 -3 6 2 11 10 11 9 0 13 -6 9
-15 -4 -10 0 -13 14 -9 15 3 19 0 16 -13 -3 -13 1 -16 16 -13 13 4 22 -2 30
-19 6 -14 18 -25 26 -25 13 0 12 3 -3 14 -10 7 -14 13 -8 13 5 0 20 -13 34
-29 14 -17 32 -31 40 -33 8 -2 19 -7 23 -13 5 -6 7 -3 3 8 -3 9 -1 17 4 17 6
0 10 -8 10 -17 0 -15 2 -16 10 -3 7 11 10 11 10 2 0 -8 5 -10 13 -6 8 5 7 2
-2 -9 -8 -10 -11 -20 -7 -24 3 -3 6 -2 6 4 0 5 7 10 15 10 8 0 15 -4 15 -8 0
-9 20 -6 39 5 10 6 12 5 7 -2 -6 -11 0 -14 20 -11 4 0 11 -5 15 -13 8 -11 10
-11 18 0 7 11 9 10 14 -3 5 -10 3 -14 -5 -9 -7 4 -8 3 -4 -5 4 -6 13 -8 19 -4
24 15 68 9 79 -10 8 -15 7 -18 -4 -14 -7 2 -12 10 -10 16 1 7 -2 10 -8 6 -8
-5 -8 -11 -1 -19 8 -10 73 -13 262 -14 230 0 250 1 245 16 -5 15 -5 15 6 1 9
-10 28 -15 55 -15 32 1 39 4 31 14 -7 8 -7 12 1 12 7 0 10 4 7 8 -6 10 50 9
60 -1 4 -4 13 -2 21 4 10 9 17 8 31 -2 13 -10 12 -8 -3 10 -11 14 -14 21 -7
17 7 -4 24 0 39 9 14 9 22 12 19 6 -4 -6 -2 -11 3 -11 6 0 11 5 11 10 0 6 5
10 11 10 5 0 7 -5 3 -11 -5 -8 -1 -8 13 0 11 6 23 7 27 3 4 -3 4 2 0 12 -5 14
-4 17 4 12 7 -4 12 -3 12 1 0 5 10 14 23 22 21 13 22 13 5 -6 -10 -11 -18 -23
-18 -28 0 -5 6 0 14 10 9 12 19 16 32 11 15 -6 16 -4 7 5 -9 9 -9 16 0 30 10
16 12 16 25 1 7 -9 11 -11 7 -5 -3 7 -2 13 4 13 5 0 12 -6 15 -12 6 -13 -3 24
-12 52 -3 9 1 8 10 -4 13 -16 15 -16 15 -2 0 9 -4 16 -9 16 -5 0 -6 4 -3 10 3
6 -1 7 -9 4 -11 -4 -16 0 -16 10 0 9 -4 16 -10 16 -5 0 -10 5 -10 11 0 5 6 7
13 4 6 -4 2 2 -10 13 -12 11 -19 23 -15 27 4 5 -2 5 -13 1 -16 -6 -17 -5 -8 5
10 10 8 15 -9 23 -15 8 -22 21 -23 39 0 18 -9 36 -25 48 -14 12 -20 18 -13 15
6 -4 15 -2 18 4 4 6 3 10 -2 9 -19 -3 -33 2 -33 12 0 5 5 7 12 3 7 -4 8 -3 4
5 -6 9 -11 9 -22 0 -12 -9 -13 -9 -9 3 4 9 -1 22 -9 30 -11 12 -12 18 -3 28 9
10 9 11 -2 5 -11 -6 -13 -4 -8 8 3 9 1 19 -5 23 -7 4 -8 3 -4 -4 4 -7 3 -12
-1 -12 -5 0 -14 9 -21 21 -8 12 -9 18 -3 14 6 -3 11 -1 11 4 0 6 -5 11 -11 11
-5 0 -8 4 -4 9 7 13 -45 52 -58 44 -6 -3 -7 -1 -3 5 4 6 12 10 19 8 7 -1 9 -1
4 1 -4 3 -4 10 -1 15 4 7 2 8 -5 4 -6 -4 -14 0 -17 8 -3 9 -10 13 -15 10 -5
-3 -6 2 -3 10 4 10 -1 18 -10 22 -14 5 -14 9 -4 22 10 12 10 14 1 8 -8 -4 -13
-1 -13 8 0 9 -5 16 -10 16 -6 0 -9 6 -8 12 2 7 -4 12 -13 12 -12 -1 -15 4 -11
19 4 15 2 18 -9 12 -12 -7 -12 -6 -1 7 11 13 9 20 -10 40 -13 13 -18 17 -12 8
24 -34 25 -43 1 -15 -18 22 -22 33 -15 43 8 10 6 11 -8 6 -16 -6 -17 -5 -6 7
6 7 12 18 12 24 0 5 -4 4 -9 -4 -11 -17 -32 -5 -24 14 3 8 0 15 -6 15 -6 0
-11 5 -11 11 0 5 5 7 12 3 7 -4 8 -3 4 5 -6 9 -11 9 -24 -1 -13 -12 -14 -10
-3 9 10 19 9 22 -4 17 -11 -5 -14 -2 -8 12 4 11 3 15 -4 11 -10 -7 -33 33 -33
58 0 8 -5 15 -11 15 -6 0 -9 6 -6 13 3 7 -1 21 -9 32 -8 10 -14 14 -14 9 0 -6
5 -15 12 -22 9 -9 9 -12 0 -12 -7 0 -12 5 -12 11 0 5 -4 8 -8 5 -5 -3 -6 8 -4
24 3 21 -1 32 -12 36 -9 3 -16 13 -16 21 0 8 -5 11 -11 8 -6 -4 -5 2 2 13 7
12 17 18 21 16 4 -3 9 0 9 5 1 6 2 14 3 19 3 12 67 112 72 112 3 0 2 -6 -2
-12 -5 -9 -3 -9 9 1 15 12 15 31 1 31 -3 0 -2 -5 2 -12 4 -7 3 -8 -4 -4 -15 9
-15 11 5 27 11 9 14 10 9 2 -4 -8 -2 -11 7 -7 7 2 14 12 14 20 0 9 -6 13 -14
10 -8 -3 -11 -1 -8 4 3 6 12 10 19 10 7 0 21 9 31 20 10 11 13 20 7 20 -7 0
-12 -4 -12 -10 0 -5 -5 -10 -10 -10 -6 0 -5 8 2 19 7 11 16 17 20 15 4 -3 8 5
8 17 0 19 2 20 17 8 15 -13 15 -12 5 8 -9 16 -9 24 0 29 7 5 8 2 3 -7 -5 -10
-5 -11 3 -4 6 6 12 21 14 35 2 15 9 25 19 24 9 -1 16 5 16 12 0 7 -5 10 -10 7
-6 -4 -7 -1 -3 6 5 7 14 10 22 7 9 -3 11 0 7 11 -5 12 -2 14 8 9 8 -4 6 -1 -4
7 -17 14 -16 15 3 20 12 3 20 13 20 27 0 11 4 19 9 16 5 -3 11 4 14 15 4 13
10 18 18 13 8 -4 10 -3 5 5 -4 6 -2 19 5 27 10 13 10 17 -2 26 -11 8 -11 9 4
4 9 -3 17 -1 17 5 0 6 4 8 9 4 5 -3 13 0 17 6 4 8 3 9 -4 5 -24 -14 -6 36 24
67 16 17 22 27 14 23 -9 -4 -8 -2 2 7 14 11 15 16 5 27 -9 10 -9 11 0 6 7 -4
21 -2 30 3 14 8 15 10 3 11 -13 0 -13 1 0 10 10 6 11 10 3 10 -8 0 -5 8 7 20
11 11 25 20 31 20 5 0 7 5 4 10 -4 6 -12 8 -18 4 -7 -3 -1 4 12 15 12 12 28
18 34 14 6 -3 7 -1 3 6 -4 6 0 14 8 17 14 5 14 8 0 21 -13 14 -13 17 2 34 9
11 22 19 28 19 6 0 0 -9 -14 -20 -14 -11 -20 -20 -14 -20 18 0 47 37 34 45 -5
3 -8 11 -4 16 3 5 9 7 14 4 5 -3 11 -1 14 4 4 5 1 13 -5 17 -8 5 -9 3 -4 -6 5
-9 4 -11 -4 -6 -15 10 -4 27 13 20 9 -3 13 1 13 13 -1 10 3 17 10 16 8 -2 10
4 6 14 -5 12 -3 14 7 8 10 -6 12 -4 7 8 -3 10 -2 17 4 17 5 0 2 11 -8 25 -10
13 -24 22 -32 20 -11 -4 -11 -2 -2 9 9 11 8 15 -4 20 -9 3 -14 2 -11 -2 2 -4
-6 -7 -19 -7 -14 0 -21 5 -18 13 3 6 -2 12 -12 12 -10 0 -13 4 -9 13 6 9 4 9
-8 -1 -13 -10 -18 -10 -24 -1 -4 8 -3 9 4 5 8 -5 10 -2 6 9 -6 14 -8 14 -20
-2 -13 -17 -14 -17 -20 5 -6 20 -8 21 -23 8 -11 -10 -21 -12 -31 -6 -13 9 -13
10 0 11 8 1 19 0 25 -1 5 -1 7 2 2 6 -7 7 -20 10 -64 16 -7 1 -13 4 -13 8 0 4
-7 7 -15 7 -8 0 -15 -4 -15 -9 0 -5 -5 -6 -10 -3 -6 4 -8 10 -5 15 3 5 -3 7
-14 5 -11 -2 -24 2 -30 9 -13 16 -501 23 -501 7 0 -6 8 -8 18 -5 14 5 15 4 2
-5 -11 -8 -18 -7 -26 4 -14 19 -28 19 -21 1 4 -10 1 -13 -8 -9 -8 3 -12 9 -9
14 3 5 1 9 -4 9 -6 0 -13 -7 -16 -16z m557 -9 c3 -5 -5 -10 -18 -10 -12 0 -22
5 -22 12 0 14 35 13 40 -2z m37 -15 c0 -5 -5 -10 -11 -10 -5 0 -7 5 -4 10 3 6
8 10 11 10 2 0 4 -4 4 -10z m230 -354 c0 -2 -7 -9 -15 -16 -13 -11 -14 -10 -9
4 5 14 24 23 24 12z m-1613 -129 c-12 -13 -24 -22 -26 -20 -6 4 30 43 40 43 5
0 -2 -10 -14 -23z m-233 -555 c3 -5 -1 -9 -9 -9 -8 0 -15 4 -15 9 0 4 4 8 9 8
6 0 12 -4 15 -8z m1666 -857 c7 -9 8 -15 2 -15 -5 0 -12 7 -16 15 -3 8 -4 15
-2 15 2 0 9 -7 16 -15z m-1415 -143 c-3 -3 -11 0 -18 7 -9 10 -8 11 6 5 10 -3
15 -9 12 -12z m120 -130 c-3 -3 -11 0 -18 7 -9 10 -8 11 6 5 10 -3 15 -9 12
-12z m292 -207 c0 -8 -4 -12 -9 -9 -5 3 -6 10 -3 15 9 13 12 11 12 -6z m340
-114 c0 -11 -5 -18 -9 -15 -4 3 -5 11 -1 19 7 21 12 19 10 -4z"/>
<path d="M1135 2560 c-4 -6 -10 -8 -15 -5 -5 3 -11 1 -15 -5 -4 -6 -11 -7 -17
-4 -7 4 -8 2 -4 -5 6 -8 12 -9 20 -2 7 6 15 9 18 6 3 -3 11 1 18 10 7 8 10 15
7 15 -3 0 -9 -5 -12 -10z"/>
<path d="M2177 2464 c-8 -9 11 -44 24 -44 6 0 3 7 -5 16 -9 8 -14 20 -11 25 7
10 1 12 -8 3z"/>
<path d="M776 2401 c-3 -5 1 -11 9 -14 9 -4 12 -1 8 9 -6 16 -10 17 -17 5z"/>
<path d="M1925 1960 c-3 -5 -1 -10 4 -10 6 0 11 5 11 10 0 6 -2 10 -4 10 -3 0
-8 -4 -11 -10z"/>
<path d="M1565 1360 c-3 -5 -1 -10 4 -10 6 0 11 5 11 10 0 6 -2 10 -4 10 -3 0
-8 -4 -11 -10z"/>
<path d="M1635 1120 c-3 -5 -1 -10 4 -10 6 0 11 5 11 10 0 6 -2 10 -4 10 -3 0
-8 -4 -11 -10z"/>
<path d="M2055 401 c-3 -5 -2 -12 3 -15 5 -3 9 1 9 9 0 17 -3 19 -12 6z"/>
<path d="M1936 102 c-3 -5 1 -9 9 -9 8 0 12 4 9 9 -3 4 -7 8 -9 8 -2 0 -6 -4
-9 -8z"/>
<path d="M1817 73 c-4 -3 -7 -11 -7 -17 0 -6 5 -5 12 2 6 6 9 14 7 17 -3 3 -9
2 -12 -2z"/>
</g>
</svg>
